Coordinates
version=1
nRows=26
nColumns=22
inDegrees=yes

Units are S.I. units (second, meters, Newtons, ...)
If the header above contains a line with 'inDegrees', this indicates whether rotational values are in degrees (yes) or radians (no).

endheader
time	pelvis_tilt	pelvis_list	pelvis_rotation	pelvis_tx	pelvis_ty	pelvis_tz	hip_flexion_r	hip_adduction_r	hip_rotation_r	knee_angle_r	ankle_angle_r	subtalar_angle_r	hip_flexion_l	hip_adduction_l	hip_rotation_l	knee_angle_l	ankle_angle_l	subtalar_angle_l	lumbar_extension	lumbar_bending	lumbar_rotation
      5.16000000	      4.46833695	      0.23555687	   -114.87961465	      0.47131786	      0.90264366	      0.53652219	     29.05362659	     -1.56878194	    -14.40093867	     -6.05652043	      4.06207101	     -2.01410598	     -7.78996682	      2.12771340	    -11.22319609	    -16.58936318	     18.29864578	      1.44149946	     -7.80692695	     -6.70032772	    -15.23006805
      5.17000000	      4.47785286	      0.27812966	   -114.66478030	      0.46746589	      0.90071303	      0.54453055	     29.00823786	     -1.86672635	    -15.44842959	     -5.87457451	      4.28870843	     -2.21275855	     -8.17648505	      2.02294909	    -10.86666804	    -16.91663475	     18.48384969	      1.61567015	     -7.64916662	     -6.47248573	    -15.72473818
      5.18000000	      4.43600377	      0.29850454	   -114.42023177	      0.46352025	      0.89890948	      0.55271104	     28.96252100	     -2.17895523	    -16.59645666	     -6.13228471	      4.38508778	     -2.55270217	     -8.59650844	      1.86175938	    -10.47635323	    -17.27883755	     18.63042285	      1.82094208	     -7.52565737	     -6.18364271	    -16.24555957
      5.19000000	      4.32990512	      0.28923414	   -114.17396142	      0.45942322	      0.89728051	      0.56099836	     28.89956010	     -2.47575516	    -17.81324698	     -6.76971772	      4.27397673	     -3.23313796	     -9.05197099	      1.63416043	    -10.06736475	    -17.69705253	     18.75044335	      2.12819907	     -7.45378714	     -5.83263474	    -16.74609396
      5.20000000	      4.17214879	      0.30618450	   -113.94809139	      0.45512460	      0.89578809	      0.56940932	     28.88281874	     -2.73730301	    -19.16935838	     -7.73308604	      3.96267440	     -4.01898066	     -9.49335840	      1.33548728	     -9.63311238	    -18.15498181	     18.78346615	      2.38535965	     -7.35283912	     -5.41146516	    -17.15911890
      5.21000000	      3.93939378	      0.35354049	   -113.76991733	      0.45053833	      0.89449364	      0.57794828	     28.88137348	     -2.91440389	    -20.64317873	     -8.90717812	      3.41636169	     -5.09714383	     -9.94438134	      0.94123498	     -9.24972234	    -18.62190893	     18.69882960	      2.66150026	     -7.21587331	     -4.89599169	    -17.51926708
      5.22000000	      3.63428449	      0.42750902	   -113.64816868	      0.44566528	      0.89344330	      0.58652402	     28.88297525	     -2.99691700	    -22.17716764	    -10.20041506	      2.64677440	     -6.40067558	    -10.37558318	      0.45869365	     -8.89202071	    -19.14957427	     18.50381500	      2.94035363	     -7.06137439	     -4.30108262	    -17.77703131
      5.23000000	      3.24744807	      0.56033741	   -113.61127836	      0.44043711	      0.89262552	      0.59515173	     28.89705005	     -2.93574206	    -23.67261210	    -11.53314304	      1.74474889	     -7.85429450	    -10.78761983	     -0.12574360	     -8.60208098	    -19.69199729	     18.25302793	      3.21153428	     -6.84528778	     -3.60177857	    -17.95479438
      5.24000000	      2.79855274	      0.72987893	   -113.69161528	      0.43482809	      0.89208826	      0.60371070	     28.89873996	     -2.71362325	    -24.91933088	    -12.82799527	      0.80705674	     -9.45093762	    -11.15310600	     -0.78210424	     -8.42821014	    -20.32071550	     17.78366232	      3.49501319	     -6.60002754	     -2.84067928	    -17.99002754
      5.25000000	      2.28577180	      0.98454957	   -113.89691880	      0.42882494	      0.89177190	      0.61221065	     28.92759770	     -2.29049190	    -25.83277863	    -14.06124355	     -0.07080898	    -10.91093127	    -11.44855588	     -1.52092977	     -8.35271845	    -20.99991903	     17.22800439	      3.75659656	     -6.26919434	     -1.98633508	    -17.91764047
      5.26000000	      1.75348418	      1.26483770	   -114.25153424	      0.42242644	      0.89172651	      0.62049804	     28.96790253	     -1.70404524	    -26.27245603	    -15.24316558	     -0.79208744	    -12.22590773	    -11.66751537	     -2.27691541	     -8.40497315	    -21.80850005	     16.44784961	      4.03701636	     -5.92649341	     -1.12596252	    -17.70396639
      5.27000000	      1.20827800	      1.61255304	   -114.74788693	      0.41565841	      0.89188023	      0.62861743	     29.05812847	     -0.94973735	    -26.28563653	    -16.37581562	     -1.34626916	    -13.16742166	    -11.78966082	     -3.05226813	     -8.54232638	    -22.71112969	     15.54094284	      4.28956397	     -5.51802149	     -0.23489271	    -17.38201941
      5.28000000	      0.69060406	      1.95589852	   -115.35427450	      0.40862158	      0.89228847	      0.63650652	     29.15622306	     -0.12011516	    -25.93317540	    -17.48562367	     -1.66697573	    -13.82801836	    -11.82488521	     -3.78820237	     -8.72697981	    -23.76421373	     14.40232983	      4.57161310	     -5.12604800	      0.60981244	    -17.00440404
      5.29000000	      0.20674272	      2.28467141	   -116.05934935	      0.40137228	      0.89294633	      0.64420982	     29.23425767	      0.75753542	    -25.30610944	    -18.55018982	     -1.81173386	    -14.06436497	    -11.79345298	     -4.46608919	     -8.90915706	    -24.93521345	     13.08590849	      4.70175016	     -4.75673068	      1.40838566	    -16.58150544
      5.30000000	     -0.20500381	      2.57043627	   -116.81389155	      0.39402598	      0.89380771	      0.65176172	     29.29665951	      1.58077917	    -24.57136303	    -19.62322201	     -1.73075944	    -14.14736788	    -11.68446904	     -5.04936185	     -9.03892760	    -26.22900044	     11.55190402	      4.96349473	     -4.42166208	      2.11056697	    -16.17160476
      5.31000000	     -0.52461624	      2.77979738	   -117.56729121	      0.38668957	      0.89487794	      0.65917849	     29.31021965	      2.28442291	    -23.79858708	    -20.69305722	     -1.46469203	    -13.97012204	    -11.50254158	     -5.51126895	     -9.05258965	    -27.62965091	      9.77686673	      5.26876985	     -4.14618652	      2.67852071	    -15.85729028
      5.32000000	     -0.76193849	      2.91625538	   -118.30431542	      0.37941966	      0.89612417	      0.66649515	     29.24990629	      2.87267067	    -23.04070240	    -21.70745947	     -1.06868260	    -13.59822415	    -11.25294564	     -5.85561587	     -8.91088432	    -29.10663576	      7.80044842	      5.51381665	     -3.92555630	      3.13045250	    -15.59273755
      5.33000000	     -0.91660965	      2.96099200	   -119.00491492	      0.37224304	      0.89752358	      0.67367266	     29.09821043	      3.33105436	    -22.31027239	    -22.65702109	     -0.58099937	    -13.18753198	    -10.93767650	     -6.08880985	     -8.64264366	    -30.65386521	      5.62960212	      5.66414587	     -3.77945094	      3.44494380	    -15.41471733
      5.34000000	     -0.98067427	      2.92685870	   -119.63336619	      0.36527088	      0.89901516	      0.68073275	     28.87302305	      3.63107144	    -21.67682137	    -23.53556835	     -0.01276935	    -12.75072199	    -10.52779227	     -6.20528062	     -8.18812268	    -32.26491877	      3.28361722	      5.80245238	     -3.68532109	      3.62827322	    -15.34096635
      5.35000000	     -0.98740804	      2.86040519	   -120.16215152	      0.35851223	      0.90052133	      0.68764913	     28.57825460	      3.83046382	    -21.14488612	    -24.28711469	      0.62857182	    -12.28349668	     -9.97702012	     -6.27584261	     -7.55976455	    -33.96400986	      0.83363055	      5.99064259	     -3.60924655	      3.73567825	    -15.40991209
      5.36000000	     -0.92892324	      2.71049836	   -120.61987670	      0.35199431	      0.90208932	      0.69440305	     28.19395170	      3.89322953	    -20.72608778	    -24.94767182	      1.28222401	    -11.94749496	     -9.35254589	     -6.24432659	     -6.78396221	    -35.70064439	     -1.74833581	      6.05290991	     -3.60405897	      3.73014600	    -15.56577076
      5.37000000	     -0.83463383	      2.55106298	   -121.00116533	      0.34572569	      0.90361148	      0.70099515	     27.75704873	      3.88911631	    -20.42420486	    -25.47576804	      1.95418874	    -11.64643946	     -8.58813178	     -6.17839474	     -5.87853077	    -37.51019281	     -4.41620843	      6.09022657	     -3.60599669	      3.69077760	    -15.78903351
      5.38000000	     -0.71184694	      2.39496010	   -121.32774707	      0.33969140	      0.90505405	      0.70739928	     27.28424099	      3.84150115	    -20.21293786	    -25.87986748	      2.63004309	    -11.37591942	     -7.68186937	     -6.08346866	     -4.87895727	    -39.39070045	     -7.15052830	      6.08170370	     -3.60715767	      3.63062125	    -16.03912098
      5.39000000	     -0.59417235	      2.23637280	   -121.61927589	      0.33388717	      0.90644097	      0.71359968	     26.75683152	      3.78198491	    -20.09562658	    -26.16213283	      3.27417096	    -11.15898578	     -6.65718205	     -5.99290637	     -3.86786567	    -41.35129410	     -9.94715320	      5.95102538	     -3.63584496	      3.58103038	    -16.29479618
      5.40000000	     -0.48964062	      2.11411525	   -121.90461160	      0.32827290	      0.90770511	      0.71958187	     26.21896207	      3.75760975	    -20.00269924	    -26.34043347	      3.88984178	    -10.96058516	     -5.49173661	     -5.92975248	     -2.88032365	    -43.39088082	    -12.78083167	      5.70452835	     -3.65758370	      3.57458826	    -16.52257295
      5.41000000	     -0.41803711	      2.03548261	   -122.21092917	      0.32282724	      0.90884106	      0.72533942	     25.67633466	      3.79739055	    -19.91796002	    -26.42906445	      4.45743698	    -10.77446371	     -4.19527624	     -5.92712680	     -1.99238665	    -45.51101222	    -15.60840598	      5.32772058	     -3.67850784	      3.63732275	    -16.67220530
